<svg width="42" height="32" viewBox="0 0 42 32" fill="none" xmlns="http://www.w3.org/2000/svg">
    <path opacity="0.15" fill-rule="evenodd" clip-rule="evenodd" d="M1.5 6.89825C1.5 5.79369 2.39543 4.89825 3.5 4.89825H38.3C39.4046 4.89825 40.3 5.79369 40.3 6.89825V27.8871C40.3 28.9917 39.4046 29.8871 38.3 29.8871H24.2108C28.4393 28.5311 31.5 24.5686 31.5 19.8916C31.5 14.0952 26.799 9.39625 21 9.39625C15.201 9.39625 10.5 14.0952 10.5 19.8916C10.5 24.5686 13.5607 28.5311 17.7892 29.8871H3.5C2.39543 29.8871 1.5 28.9917 1.5 27.8871V6.89825ZM21 24.8894C23.7614 24.8894 26 22.6518 26 19.8916C26 17.1314 23.7614 14.8938 21 14.8938C18.2386 14.8938 16 17.1314 16 19.8916C16 22.6518 18.2386 24.8894 21 24.8894Z" fill="url(#paint0_linear)"/>
    <path d="M10 10H14V14H10V10Z" fill="#4CAF50"/>
    <path d="M20 10H24V14H20V10Z" fill="#FFC107"/>
    <path d="M15 20H25V24H15V20Z" fill="#F44336"/>
    <path d="M5 15C5.5 15.5 6 15 6 15C6 15 5.5 14.5 5 15Z" fill="#2196F3"/>
    <path d="M32 12C31 13 32 14 32 14C32 14 33 13 32 12Z" fill="#FF5722"/>
    <path d="M12 5C12 6.1 11.1 7 10 7C8.9 7 8 6.1 8 5C8 3.9 8.9 3 10 3C11.1 3 12 3.9 12 5Z" fill="#9C27B0"/>
    <defs>
        <linearGradient id="paint0_linear" x1="0" y1="0" x2="1" y2="1">
            <stop offset="0%" stop-color="#FFEB3B"/>
            <stop offset="100%" stop-color="#FF9800"/>
        </linearGradient>
    </defs>
</svg>
